<svg width="202" height="31" viewBox="0 0 202 31" fill="none" xmlns="http://www.w3.org/2000/svg">
      <path d="M87.256 23V6.20001H90.376V23H87.256ZM94.9201 23V6.20001H97.4881L104.832 18.464H103.488L110.712 6.20001H113.28L113.304 23H110.352L110.328 10.832H110.952L104.808 21.08H103.416L97.1761 10.832H97.8961V23H94.9201ZM117.842 23V6.20001H124.754C126.242 6.20001 127.514 6.44001 128.57 6.92001C129.642 7.40001 130.466 8.08801 131.042 8.98401C131.618 9.88001 131.906 10.944 131.906 12.176C131.906 13.408 131.618 14.472 131.042 15.368C130.466 16.264 129.642 16.952 128.57 17.432C127.514 17.912 126.242 18.152 124.754 18.152H119.57L120.962 16.688V23H117.842ZM120.962 17.024L119.57 15.512H124.61C125.986 15.512 127.018 15.224 127.706 14.648C128.41 14.056 128.762 13.232 128.762 12.176C128.762 11.104 128.41 10.28 127.706 9.70401C127.018 9.12801 125.986 8.84001 124.61 8.84001H119.57L120.962 7.30401V17.024ZM131.802 23L139.362 6.20001H142.434L150.018 23H146.754L140.25 7.85601H141.498L135.018 23H131.802ZM135.282 19.112L136.122 16.664H145.194L146.034 19.112H135.282ZM159.696 23.24C158.416 23.24 157.224 23.032 156.12 22.616C155.032 22.184 154.08 21.584 153.264 20.816C152.464 20.032 151.84 19.112 151.392 18.056C150.944 17 150.72 15.848 150.72 14.6C150.72 13.352 150.944 12.2 151.392 11.144C151.84 10.088 152.472 9.17601 153.288 8.40801C154.104 7.62401 155.056 7.02401 156.144 6.60801C157.232 6.17601 158.424 5.96001 159.72 5.96001C161.096 5.96001 162.352 6.20001 163.488 6.68002C164.624 7.14401 165.584 7.84001 166.368 8.76801L164.352 10.664C163.744 10.008 163.064 9.52001 162.312 9.20001C161.56 8.86401 160.744 8.69601 159.864 8.69601C158.984 8.69601 158.176 8.84001 157.44 9.12802C156.72 9.41602 156.088 9.82402 155.544 10.352C155.016 10.88 154.6 11.504 154.296 12.224C154.008 12.944 153.864 13.736 153.864 14.6C153.864 15.464 154.008 16.256 154.296 16.976C154.6 17.696 155.016 18.32 155.544 18.848C156.088 19.376 156.72 19.784 157.44 20.072C158.176 20.36 158.984 20.504 159.864 20.504C160.744 20.504 161.56 20.344 162.312 20.024C163.064 19.688 163.744 19.184 164.352 18.512L166.368 20.432C165.584 21.344 164.624 22.04 163.488 22.52C162.352 23 161.088 23.24 159.696 23.24ZM172.578 23V8.84001H167.01V6.20001H181.266V8.84001H175.698V23H172.578ZM191.245 23.24C189.933 23.24 188.725 23.024 187.621 22.592C186.517 22.16 185.557 21.56 184.741 20.792C183.925 20.008 183.293 19.096 182.845 18.056C182.397 17 182.173 15.848 182.173 14.6C182.173 13.352 182.397 12.208 182.845 11.168C183.293 10.112 183.925 9.20001 184.741 8.43201C185.557 7.64801 186.517 7.04001 187.621 6.60801C188.725 6.17601 189.925 5.96001 191.221 5.96001C192.533 5.96001 193.733 6.17601 194.821 6.60801C195.925 7.04001 196.885 7.64801 197.701 8.43201C198.517 9.20001 199.149 10.112 199.597 11.168C200.045 12.208 200.269 13.352 200.269 14.6C200.269 15.848 200.045 17 199.597 18.056C199.149 19.112 198.517 20.024 197.701 20.792C196.885 21.56 195.925 22.16 194.821 22.592C193.733 23.024 192.541 23.24 191.245 23.24ZM191.221 20.504C192.069 20.504 192.853 20.36 193.573 20.072C194.293 19.784 194.917 19.376 195.445 18.848C195.973 18.304 196.381 17.68 196.669 16.976C196.973 16.256 197.125 15.464 197.125 14.6C197.125 13.736 196.973 12.952 196.669 12.248C196.381 11.528 195.973 10.904 195.445 10.376C194.917 9.83202 194.293 9.41602 193.573 9.12802C192.853 8.84001 192.069 8.69601 191.221 8.69601C190.373 8.69601 189.589 8.84001 188.869 9.12802C188.165 9.41602 187.541 9.83202 186.997 10.376C186.469 10.904 186.053 11.528 185.749 12.248C185.461 12.952 185.317 13.736 185.317 14.6C185.317 15.448 185.461 16.232 185.749 16.952C186.053 17.672 186.469 18.304 186.997 18.848C187.525 19.376 188.149 19.784 188.869 20.072C189.589 20.36 190.373 20.504 191.221 20.504Z" fill="#004AAD"/>
      <path d="M0.119765 1.47355C-0.269471 2.07673 0.778473 2.26865 4.04207 2.24123L7.33561 2.1864L7.42543 13.1258L7.48532 24.0653L5.47925 25.4909C3.38336 26.9441 0 29.9051 0 30.2615C0 31.0018 0.838355 30.5905 2.42524 29.1648C12.1262 20.2543 27.9651 15.9498 44.6125 17.6222C55.1219 18.6915 65.1223 22.6944 71.9189 28.6165C73.2663 29.7954 74.4939 30.7825 74.6136 30.7825C75.6915 30.8099 72.9968 27.8214 70.2123 25.9022C69.7332 25.5732 68.9547 25.0523 68.5056 24.7233L67.6673 24.1749V13.2081V2.26865H71.0806C73.5956 2.26865 74.5538 2.15898 74.8232 1.88481C75.0927 1.58322 75.0628 1.47355 74.6735 1.33646C73.7453 1.00746 0.359295 1.14454 0.119765 1.47355ZM37.0673 9.20518L36.9775 16.1143L35.181 16.2788C34.1929 16.3885 32.2168 16.553 30.7796 16.6352L28.1448 16.8271V9.58902C28.1448 5.61353 28.2047 2.29606 28.2646 2.24123C28.3244 2.1864 30.3604 2.15898 32.7557 2.21381L37.1272 2.29606L37.0673 9.20518ZM56.589 10.6857C56.589 18.527 56.5591 19.0479 56.08 18.9383C54.4632 18.527 49.433 17.3481 48.7444 17.211L47.906 17.0739V9.69869C47.906 5.66837 47.9659 2.29606 48.0258 2.24123C48.0857 2.1864 50.0618 2.15898 52.3673 2.21381L56.589 2.29606V10.6857ZM17.3659 10.8228V19.4043L13.1143 21.3235C10.7789 22.3654 8.77279 23.2702 8.62309 23.325C8.50332 23.3798 8.38355 18.6641 8.38355 12.8517V2.26865H12.8747H17.3659V10.8228ZM27.2466 9.67127V17.0739L26.4381 17.211C25.9591 17.2932 24.0428 17.7319 22.1565 18.1706C20.2702 18.6367 18.6235 18.9931 18.5037 18.9931C18.354 18.9931 18.2642 15.2369 18.2642 10.6309V2.26865H22.7554H27.2466V9.67127ZM46.7084 9.5616V16.8546L45.1514 16.6901C44.2831 16.6078 42.307 16.4707 40.8099 16.361L38.0254 16.1691V9.2326V2.26865H42.3669H46.7084V9.5616ZM66.4696 12.8517C66.4696 18.6641 66.3798 23.3798 66.26 23.325C66.1103 23.2702 64.1641 22.3654 61.9185 21.351L57.7866 19.4592V10.8502V2.26865H62.1281H66.4696V12.8517Z" fill="#004AAD"/>
    </svg>