<svg width="151" height="92" viewBox="0 0 151 92" fill="none" xmlns="http://www.w3.org/2000/svg">
<path d="M4.14889 0.691776C3.39205 1.97259 5.4297 2.38012 11.7755 2.3219L18.1796 2.20546L18.3543 25.4347L18.4707 48.664L14.57 51.6914C10.4947 54.777 3.91602 61.0646 3.91602 61.8214C3.91602 63.3933 5.54614 62.52 8.63173 59.4927C27.4946 40.5716 58.2923 31.4313 90.6619 34.9826C111.097 37.2531 130.542 45.7531 143.757 58.3283C146.377 60.8317 148.764 62.9276 148.997 62.9276C151.093 62.9858 145.853 56.64 140.439 52.5646C139.507 51.866 137.994 50.7599 137.12 50.0612L135.49 48.8969V25.6094V2.38012H142.127C147.018 2.38012 148.881 2.14724 149.405 1.56506C149.929 0.924652 149.87 0.691776 149.113 0.400681C147.309 -0.297943 4.61464 -0.00684738 4.14889 0.691776ZM75.9908 17.1095L75.8161 31.7806L72.323 32.1299C70.4018 32.3628 66.5594 32.7121 63.7649 32.8867L58.6416 33.2943V17.9245C58.6416 9.4828 58.758 2.43834 58.8745 2.3219C58.9909 2.20546 62.9498 2.14724 67.6073 2.26368L76.1072 2.43834L75.9908 17.1095ZM113.949 20.2533C113.949 36.9038 113.891 38.01 112.96 37.7771C109.816 36.9038 100.035 34.4004 98.6961 34.1093L97.066 33.8182V18.1574C97.066 9.59924 97.1824 2.43834 97.2988 2.3219C97.4153 2.20546 101.258 2.14724 105.741 2.26368L113.949 2.43834V20.2533ZM37.6829 20.5444V38.7668L29.4158 42.8421C24.8748 45.0544 20.9741 46.9757 20.683 47.0921C20.4501 47.2085 20.2173 37.1949 20.2173 24.8525V2.38012H28.9501H37.6829V20.5444ZM56.8951 18.0992V33.8182L55.3231 34.1093C54.3916 34.284 50.6656 35.2155 46.9979 36.147C43.3301 37.1367 40.1281 37.8935 39.8952 37.8935C39.6041 37.8935 39.4294 29.9176 39.4294 20.1368V2.38012H48.1622H56.8951V18.0992ZM94.7372 17.8663V33.3525L91.7098 33.0032C90.0215 32.8285 86.1791 32.5374 83.2681 32.3045L77.8538 31.897V17.1677V2.38012H86.2955H94.7372V17.8663ZM133.162 24.8525C133.162 37.1949 132.987 47.2085 132.754 47.0921C132.463 46.9757 128.679 45.0544 124.312 42.9003L116.278 38.8833V20.6026V2.38012H124.72H133.162V24.8525Z" fill="#15406B"/>
<path d="M71.5077 50.2358C71.2166 50.9926 70.1104 53.5542 69.1207 55.9412C68.131 58.3282 66.792 61.5302 66.1516 63.0439L65.0454 65.8384H66.792C68.2474 65.8384 68.655 65.4891 69.3536 63.8007L70.2269 61.7631H74.3022C78.2611 61.7631 78.3193 61.8213 78.9597 63.5096C79.4254 64.9069 79.8912 65.2562 81.2884 65.2562C82.2782 65.2562 83.0932 65.1398 83.0932 65.0233C83.0932 64.9069 81.4049 61.2391 79.3672 56.8727C75.6994 49.246 75.5248 48.955 73.7782 48.955C72.4974 48.955 71.857 49.3043 71.5077 50.2358ZM76.6892 58.9104C76.6892 59.2014 75.4666 59.4343 74.0111 59.4343C70.9837 59.4343 70.9837 59.2597 72.9049 54.5439L73.8364 52.2734L75.2919 55.359C76.0487 56.9891 76.6892 58.6193 76.6892 58.9104Z" fill="#15406B"/>
<path d="M96.8909 52.0988C94.0382 53.1468 92.9903 54.0783 92.0006 56.3488C90.8944 59.0269 91.0691 62.3453 92.4081 64.5577C94.4458 67.8761 100.442 69.7391 103.644 68.109C105.391 67.1775 105.391 67.2357 104.576 65.9549C103.994 65.0234 103.586 64.907 102.538 65.3727C100.559 66.3042 97.2985 65.4309 95.9012 63.6844C94.0382 61.2974 94.5622 57.3968 97.0074 55.5338C98.5211 54.3694 102.363 54.6023 103.819 55.9995C104.692 56.8146 105.507 57.1057 106.322 56.8146C107.836 56.3488 107.894 55.2427 106.555 54.0783C103.877 51.8078 100.035 50.9927 96.8909 52.0988Z" fill="#15406B"/>
<path d="M47.8708 52.7392C47.5797 52.8557 45.8331 53.3796 44.0283 53.9036L40.7681 54.8351L42.8057 62.2289C43.9119 66.3042 44.9598 69.8555 45.2509 70.0884C45.4838 70.3213 46.3571 70.3795 47.1721 70.2048C48.5112 69.8555 48.5694 69.6809 48.0454 68.109C47.2303 65.722 47.7543 64.9069 50.2577 64.383C52.994 63.9172 56.3125 60.7152 56.3125 58.6193C56.3125 56.3488 55.0899 54.1947 53.3433 53.2632C51.8296 52.5064 49.2098 52.2735 47.8708 52.7392ZM51.7714 56.3488C54.1002 58.4447 52.47 61.2974 48.3365 62.1124C46.5899 62.4618 46.4735 62.3453 45.8331 60.0166C45.018 57.0474 45.3091 56.1159 47.1139 55.7666C49.792 55.2426 50.7235 55.3591 51.7714 56.3488Z" fill="#15406B"/>
<path d="M117.442 58.2118C116.627 59.8419 116.627 59.8419 118.898 60.5987C120.004 60.948 121.052 61.472 121.226 61.7631C121.401 62.0542 120.237 64.9651 118.607 68.2254C116.976 71.4274 115.696 74.1637 115.812 74.2801C115.928 74.3383 116.569 74.7459 117.268 75.0952C118.548 75.7356 118.723 75.5027 121.576 69.7973C123.206 66.4788 124.661 63.7425 124.72 63.6261C124.836 63.5097 125.942 63.9754 127.281 64.6158C129.61 65.8384 129.61 65.8384 130.25 64.674C130.832 63.6261 130.309 63.2768 124.487 60.3076C118.432 57.2803 118.024 57.1638 117.442 58.2118Z" fill="#15406B"/>
<path d="M26.5046 60.6569C25.6313 61.1226 25.4566 62.1706 25.4566 67.2938C25.4566 70.6705 25.282 73.4068 25.0491 73.4068C24.8744 73.4068 22.4875 72.2424 19.8094 70.7869C14.6279 67.9924 13.7547 67.7596 12.7649 68.9239C12.241 69.5061 13.1143 71.3691 16.1999 76.4924C18.4704 80.2184 20.4498 83.304 20.7409 83.304C20.9738 83.304 21.6142 82.9546 22.1382 82.5471C23.0697 81.9067 22.9532 81.4992 20.7991 78.0643C19.5765 75.9684 18.5286 74.1054 18.4704 73.8143C18.4704 73.5814 20.3334 74.3383 22.6039 75.5026C24.8744 76.6088 27.0868 77.4239 27.5525 77.2492C28.0765 77.0163 28.3676 75.5026 28.484 72.126L28.6587 67.2938L31.1621 71.5438C33.6073 75.6773 33.6655 75.7355 35.0627 74.804L36.4018 73.9307L32.2682 66.9445C29.9395 63.1603 27.96 60.0165 27.7854 60.0165C27.6107 60.0165 27.0285 60.3076 26.5046 60.6569Z" fill="#15406B"/>
<path d="M136.771 73.3485C132.637 75.9684 131.357 81.3245 133.918 85.1087C135.898 88.0197 138.692 89.708 141.72 89.708C152.956 89.708 152.723 73.4068 141.487 72.417C139.391 72.2424 138.226 72.4753 136.771 73.3485ZM144.689 76.7252C147.658 78.5882 147.658 82.8382 144.689 85.3416C142.476 87.2046 140.148 87.2046 137.935 85.3416C135.723 83.4786 135.257 81.5574 136.305 78.9375C137.761 75.5026 141.312 74.5711 144.689 76.7252Z" fill="#15406B"/>
<path d="M0.771973 79.1123C-0.275964 80.2767 -0.275964 80.3931 0.88841 81.965C1.52882 82.8383 4.03222 85.5164 6.41919 87.8451C10.4363 91.804 10.8438 92.0951 12.0082 91.3965C12.6486 90.9307 13.2308 90.465 13.2308 90.2903C13.2308 90.1156 10.6692 87.2629 7.52534 83.9445C1.87813 77.9479 1.87813 77.9479 0.771973 79.1123Z" fill="#15406B"/>
</svg>
